<svg
                          width="16"
                          height="16"
                          viewBox="0 0 16 16"
                          fill="none"
                          xmlns="http://www.w3.org/2000/svg"
                        >
                          <path
                            d="M7.99823 3.09333C9.50046 3.09333 10.5138 3.74222 11.0916 4.28445L13.3493 2.08C11.9627 0.791111 10.1582 0 7.99823 0C4.86934 0 2.16712 1.79556 0.851562 4.40889L3.43823 6.41778C4.08712 4.48889 5.88268 3.09333 7.99823 3.09333Z"
                            fill="#EA4335"
                          />
                          <path
                            d="M15.68 8.17755C15.68 7.51977 15.6267 7.03977 15.5111 6.54199H8V9.51088H12.4089C12.32 10.2487 11.84 11.3598 10.7733 12.1064L13.2978 14.062C14.8089 12.6664 15.68 10.6131 15.68 8.17755Z"
                            fill="#4285F4"
                          />
                          <path
                            d="M3.44889 9.58252C3.28 9.08474 3.18222 8.5514 3.18222 8.00029C3.18222 7.44918 3.28 6.91585 3.44 6.41807L0.853334 4.40918C0.311111 5.49362 0 6.7114 0 8.00029C0 9.28918 0.311111 10.507 0.853334 11.5914L3.44889 9.58252Z"
                            fill="#FBBC05"
                          />
                          <path
                            d="M8.00106 15.9998C10.1611 15.9998 11.9744 15.2887 13.2988 14.062L10.7744 12.1065C10.0988 12.5776 9.19217 12.9065 8.00106 12.9065C5.88551 12.9065 4.08995 11.5109 3.44995 9.58203L0.863281 11.5909C2.17884 14.2043 4.87217 15.9998 8.00106 15.9998Z"
                            fill="#34A853"
                          />
                        </svg>